<svg xmlns="http://www.w3.org/2000/svg" enable-background="new 0 0 64 64" viewBox="0 0 64 64" id="GiftBox"><path fill="#f203ff" d="M41,2.95c1.65,2.06,1.17,4.1-0.19,5.89c-0.75,0.99-1.76,1.9-2.83,2.71c-1.36,1.02-2.82,1.86-3.95,2.46C32.84,14.64,32,15,32,15s-0.84-0.35-2.03-0.98h-0.01c-1.15-0.61-2.63-1.47-4.01-2.49c-1.06-0.81-2.06-1.7-2.81-2.67c-1.38-1.8-1.87-3.85-0.22-5.91C26.94-2.07,32,4.19,32,4.19S36.98-2.07,41,2.95z M32.05,11.55c0,0,5.08-2.15,3.3-4.38c-1.46-1.82-3.29,0.4-3.29,0.4s-1.85-2.22-3.31-0.4C26.97,9.4,32.05,11.55,32.05,11.55z" class="colorf42b4a svgShape"></path><path fill="#e2e3e3" d="M26.145 3.314c-.216-.198-.55-.214-.764 0l-.159.159c-.2.2-.216.567 0 .764.216.198.55.214.764 0l.159-.159C26.345 3.878 26.36 3.511 26.145 3.314zM24.967 4.619c-.164-.164-.419.091-.255.255C24.876 5.038 25.131 4.783 24.967 4.619z" class="colore3e3e2 svgShape"></path><polygon fill="#faa7ff" points="14 29.19 14 56.33 5 53 5 26.29 12 28.55" class="colorffe6a7 svgShape"></polygon><polygon fill="#faa7ff" points="32 35 32 63 20 58.56 20 31.13" class="colorffe6a7 svgShape"></polygon><path fill="#f76cff" d="M25.95,11.53l-5.66-1.75l2.85-0.92C23.89,9.83,24.89,10.72,25.95,11.53z" class="colorffd56c svgShape"></path><polygon fill="#faa7ff" points="12 19.55 12 28.55 5 26.29 1 25 1 20 1 16" class="colorffe6a7 svgShape"></polygon><polygon fill="#faa7ff" points="25.48 15.4 12 19.55 1 16 13.69 11.91" class="colorffe6a7 svgShape"></polygon><polygon fill="#faa7ff" points="32 26 32 35 20 31.13 18 30.48 18 21.48" class="colorffe6a7 svgShape"></polygon><polygon fill="#f76cff" points="32 26 32 35 25.07 32.77 25.07 23.76" class="colorffd56c svgShape"></polygon><polygon fill="#f76cff" points="46 21.48 32 26 18 21.48 32 17.33" class="colorffd56c svgShape"></polygon><polygon fill="#e94cf2" points="63 20 63 25 59 26.29 52 28.55 52 19.55 63 16" class="colorf2a24c svgShape"></polygon><polygon fill="#e94cf2" points="63 16 52 19.55 38.52 15.4 50.31 11.91" class="colorf2a24c svgShape"></polygon><polygon fill="#e94cf2" points="59 26.29 59 53 50 56.33 50 29.19 52 28.55" class="colorf2a24c svgShape"></polygon><polygon fill="#c100cc" points="52 19.55 52 28.55 50 29.19 46 30.48 46 21.48" class="colorcc0033 svgShape"></polygon><polygon fill="#c100cc" points="52 19.55 46 21.48 32 17.33 38.52 15.4" class="colorcc0033 svgShape"></polygon><path fill="#c100cc" d="M43.72,9.78l6.59,2.13L38.52,15.4l-4.49-1.39c1.13-0.6,2.59-1.44,3.95-2.46L43.72,9.78z" class="colorcc0033 svgShape"></path><polygon fill="#c100cc" points="50 29.19 50 56.33 44 58.56 44 31.13 46 30.48" class="colorcc0033 svgShape"></polygon><polygon fill="#e94cf2" points="46 21.48 46 30.48 44 31.13 32 35 32 26" class="colorf2a24c svgShape"></polygon><polygon fill="#e94cf2" points="44 31.13 44 58.56 32 63 32 35" class="colorf2a24c svgShape"></polygon><path fill="#e94cf2" d="M43.72,9.78l-5.74,1.77c1.07-0.81,2.08-1.72,2.83-2.71L43.72,9.78z" class="colorf2a24c svgShape"></path><path fill="#c100cc" d="M40.81,8.84c-0.75,0.99-1.76,1.9-2.83,2.71c-1.36,1.02-2.82,1.86-3.95,2.46c-1.03,0.54-1.79,0.89-1.98,0.97v-3.43c0,0,5.08-2.15,3.3-4.38c-1.46-1.82-3.29,0.4-3.29,0.4s0,0-0.01-0.01V4.13C32.58,3.5,37.21-1.78,41,2.95C42.65,5.01,42.17,7.05,40.81,8.84z" class="colorcc0033 svgShape"></path><path fill="#c100cc" d="M38.52,15.4L32,17.33l-6.52-1.93l4.48-1.38h0.01C31.16,14.65,32,15,32,15s0.84-0.36,2.03-0.99L38.52,15.4z" class="colorcc0033 svgShape"></path><path fill="#14f7f8" d="M35.35,7.17c1.78,2.23-3.3,4.38-3.3,4.38s-5.08-2.15-3.3-4.38c1.46-1.82,3.31,0.4,3.31,0.4S33.89,5.35,35.35,7.17z" class="color64ddf3 svgShape"></path><polygon fill="#f203ff" points="32 17.33 18 21.48 12 19.55 25.48 15.4" class="colorf42b4a svgShape"></polygon><path fill="#f203ff" d="M29.96,14.02l-4.48,1.38l-11.79-3.49l6.6-2.13l5.66,1.75C27.33,12.55,28.81,13.41,29.96,14.02z" class="colorf42b4a svgShape"></path><polygon fill="#f203ff" points="20 31.13 20 58.56 14 56.33 14 29.19 18 30.48" class="colorf42b4a svgShape"></polygon><polygon fill="#f76cff" points="14 51.19 14 56.33 5 53 5 47.96" class="colorffd56c svgShape"></polygon><path fill="#f76cff" d="M32,35v28l-12-4.44v-5.89c2.77-0.36,5.07-2.71,5.07-5.77V32.77L32,35z" class="colorffd56c svgShape"></path><path fill="#f203ff" d="M20,52.67v5.89l-6-2.23v-5.14l3.29,1.18C18.2,52.7,19.12,52.78,20,52.67z" class="colorf42b4a svgShape"></path><polygon fill="#f203ff" points="18 21.48 18 30.48 14 29.19 12 28.55 12 19.55" class="colorf42b4a svgShape"></polygon></svg>