<svg width="116" height="80" viewBox="0 0 116 80" fill="none" xmlns="http://www.w3.org/2000/svg">
<g filter="url(#filter0_d_4165_191)">
<path d="M101.052 40.4989C101.596 40.9101 103.326 41.1157 106.24 41.1157L106.222 41.4241H104.063L104.045 41.7325C106.621 41.7325 108.23 42.3493 108.871 43.583L108.835 44.1998H107.293L107.274 44.5082L109.415 44.8166L109.397 45.125H107.547L107.528 45.4334C108.145 45.4334 108.441 45.639 108.417 46.0502C104.753 46.0502 101.481 47.3866 98.6028 50.0595L98.5846 50.3679C102.564 51.4322 105.714 53.7966 108.036 57.4612L108.018 57.7696C107.268 60.4304 105.17 62.8976 101.723 65.1713L99.8364 65.4797L99.8182 65.7882H100.435C100.411 66.3445 98.5241 66.9613 94.7749 67.6386L94.8112 67.0218H96.3532L96.3895 66.7134C95.0712 66.7134 93.8799 65.9938 92.8156 64.5545C91.8964 64.0829 91.4369 63.1818 91.4369 61.8514C91.4369 61.7305 91.4429 61.6035 91.455 61.4705L92.4165 60.8537L93.3054 61.4705H93.9222C99.7275 60.5634 102.721 58.713 102.902 55.9192C100.471 54.6856 98.8628 54.0687 98.0766 54.0687L98.0585 54.3771L95.0289 53.1435L95.3191 53.4519L95.301 54.0687C92.737 52.182 91.4852 50.7428 91.5457 49.7511L93.9585 45.4334L95.5731 44.1998L95.5368 44.8166L101.052 40.4989ZM96.843 48.8259L96.8249 49.1343L102.267 45.7418L104.771 45.125L104.807 44.5082H104.19C100.937 45.7176 98.4879 47.1568 96.843 48.8259ZM98.5483 61.4705H98.8567L99.5098 60.8537H99.2014L98.5483 61.4705ZM104.1 61.4705L102.775 63.0125H103.084L104.408 61.4705H104.1ZM100.235 63.9377V64.2461H100.544L101.832 63.3209L100.235 63.9377ZM96.7342 66.0966L96.716 66.405H97.9497L99.5098 66.0966V65.7882H99.2014L96.7342 66.0966Z" fill="white"/>
</g>
<g filter="url(#filter1_d_4165_191)">
<path d="M74.9825 40.8618H76.2162L77.1414 41.4786L79.3002 41.1702C82.868 41.1702 86.1577 43.2262 89.1692 47.3383L90.7112 50.4223L90.4028 50.7307L90.7112 52.2728V53.8148C90.7112 59.1 86.3935 63.1093 77.7582 65.8426L74.6741 66.151C74.6741 65.6309 74.2629 65.3225 73.4405 65.2258V66.4594H72.5153V64.609L72.2069 64.3006L72.5153 63.9922V63.6838C71.2817 62.8372 70.6649 62.1175 70.6649 61.5249C71.2817 52.2123 72.3097 45.4274 73.7489 41.1702H74.0573L74.3657 41.4786L74.9825 40.8618ZM73.7489 43.9458L72.2069 52.8896V53.198H72.5153L74.0573 44.5626V43.9458H73.7489ZM78.6834 46.1046C78.6834 46.5159 78.2722 46.7215 77.4498 46.7215C76.6274 50.4707 76.0106 54.7884 75.5993 59.6745C76.7967 59.6745 79.8807 58.6465 84.8515 56.5904V56.282H84.2347C85.8795 54.6009 86.7019 52.8533 86.7019 51.0391V50.1139C86.7019 47.8523 85.1599 46.5159 82.0759 46.1046H78.6834ZM84.8515 46.1046V46.4131L86.0851 47.0299V46.7215L85.1599 46.1046H84.8515ZM87.6272 50.4223L87.3188 54.1232H87.9356V53.198L88.244 51.9644L87.9356 50.4223H87.6272ZM89.786 52.8896L88.244 57.8241V58.1325H88.5524L90.0944 53.5064V52.8896H89.786ZM86.7019 55.0484L86.0851 56.282H86.3935L87.0103 55.0484H86.7019ZM84.8515 60.5997C85.3353 60.5271 86.0549 59.9103 87.0103 58.7493V58.4409L84.8515 60.5997ZM77.7582 62.4501V62.7585H78.9918L80.5338 62.1417V61.8333H80.2254L77.7582 62.4501ZM75.2909 62.7585L75.5993 63.6838H76.2162L76.833 63.067V62.7585H76.5246L75.5993 63.067L75.2909 62.7585ZM71.8985 64.609H72.2069V64.9174L71.5901 65.5342H71.2817V65.2258L71.8985 64.609Z" fill="white"/>
</g>
<g filter="url(#filter2_d_4165_191)">
<path d="M60.941 39.5374C61.074 40.1542 61.8964 40.4626 63.4082 40.4626L65.8755 51.2568H68.0343V51.5652L66.1839 51.8736V52.182C66.8007 52.182 67.1091 52.3876 67.1091 52.7989H69.5764V53.1073C69.5764 53.5668 68.5483 53.978 66.4923 54.3409L67.1091 56.1913L66.8007 57.1165L67.1091 58.967L66.8007 59.2754H67.1091L66.8007 59.5838L67.1091 63.2846V65.1351L66.8007 64.8267H66.4923L67.4175 69.4527H66.8007C66.8007 68.8359 66.5951 68.5275 66.1839 68.5275V68.8359L66.4923 69.7612H66.1839L65.8755 69.4527H65.5671C65.5671 70.0696 65.3615 70.378 64.9503 70.378L63.4082 65.1351H63.0998V66.3687H62.7914L62.1746 62.6678L63.0998 63.2846V62.9762C62.9305 61.1258 62.6221 60.2006 62.1746 60.2006L62.483 59.8922V58.967H61.8662V59.8922H61.5578V58.6586L61.8662 58.3501H61.5578L61.2494 58.6586V57.4249H61.5578L61.8662 57.7333H62.1746L61.8662 57.4249V55.5745L55.0813 57.1165V57.7333L57.2401 57.1165L58.4738 57.4249L60.0158 57.1165V57.7333C55.6981 58.5074 53.5393 59.5354 53.5393 60.8174C52.995 63.079 52.3782 64.5183 51.6888 65.1351V65.7519H50.7636L50.4552 65.4435H50.1468V65.7519L49.2216 65.1351L49.8384 63.2846H49.53C48.9132 63.2846 48.6048 64.1071 48.6048 65.7519L47.988 65.1351L48.2964 63.2846L47.3712 62.3594L52.614 49.7148H52.9225C52.9225 50.3316 53.1281 50.64 53.5393 50.64L53.8477 49.098L53.5393 49.4064H53.2309V48.1728L53.5393 46.6307L53.8477 46.9391H54.1561L53.8477 46.6307V46.3223L54.4645 45.0887H54.7729L55.0813 45.3971H55.3897V45.0887C55.3897 44.6775 55.0813 44.4719 54.4645 44.4719L56.0065 40.1542H57.2401L56.9317 40.4626V40.771C58.3589 39.9486 59.6953 39.5374 60.941 39.5374ZM59.0906 46.6307L56.6233 53.1073H57.2401C59.2962 53.1073 60.427 52.4904 60.6326 51.2568L59.399 46.6307H59.0906ZM56.3149 48.4812L55.6981 50.64L55.3897 50.3316H55.0813L55.3897 51.5652H55.6981L56.6233 48.7896V48.4812H56.3149ZM52.9225 51.2568L52.614 51.5652V52.182H52.9225L53.2309 51.2568H52.9225ZM54.7729 52.4904L54.4645 53.7241H54.7729L55.0813 53.4157V52.4904H54.7729ZM51.9972 52.7989L51.6888 54.0325H51.9972L52.614 52.7989H51.9972ZM57.2401 53.7241V54.0325H57.8569C59.7074 53.8269 60.6326 53.5185 60.6326 53.1073H60.3242L57.2401 53.7241ZM61.5578 60.509H62.1746V62.3594H61.8662L61.5578 60.509ZM65.8755 62.6678V63.2846L66.1839 64.5183H66.4923V63.9014L66.1839 62.6678H65.8755ZM62.7914 63.593V64.2099L63.7166 63.9014V63.2846L62.7914 63.593Z" fill="white"/>
</g>
<g filter="url(#filter3_d_4165_191)">
<path d="M47.0809 40.9525L48.5685 41.9865C48.1331 43.8128 47.347 44.6896 46.2101 44.617L38.1553 44.9799L38.119 45.5967L39.6429 45.7055L41.5115 45.5241L41.8017 45.8688L42.1101 45.8869L44.2871 45.7055L44.9039 45.76L44.8858 46.0684L37.7199 46.8122L37.1575 50.8033L37.4659 50.8214L45.8473 50.1502L46.1194 50.4767L46.1013 50.7851L45.4845 50.7307V51.0391L47.607 51.5108L47.5889 51.8192C47.1414 52.9682 44.1904 53.8994 38.7358 54.613L35.6336 54.7219L35.9239 55.0303L34.4363 58.9488H34.1279L34.3093 56.1732L34.0009 56.155L33.4022 60.4364C39.5582 59.614 43.9062 59.2875 46.446 59.4568L47.9517 59.874L47.9336 60.4908L47.3168 60.4546L47.5889 60.7811L47.5345 61.7063C46.9418 62.4804 45.684 62.8069 43.761 62.686L43.7429 62.9944L46.2101 63.1576L46.1557 63.7745L31.8058 65.8789L31.4974 65.8607C30.5056 65.643 30.0098 65.3225 30.0098 64.8992V64.8448L30.0642 63.9196L30.9168 60.5816L30.6266 60.255L31.2434 60.2732L31.1345 61.8152L31.4429 61.8515C31.5639 60.8234 31.8058 60.3276 32.1686 60.3639L31.8783 60.0192L32.096 56.9533L31.4792 56.8988L31.062 58.4227L31.4067 58.1325L31.7151 58.1506L31.5881 60.001L31.2797 59.9647L31.3341 59.0577L31.0257 59.0395L30.9894 59.6563L30.681 59.6382L30.7173 59.0214L31.6969 53.8148L31.3885 53.7966L32.096 52.309L31.8058 51.9825L31.8239 51.6741L32.4952 46.4675L32.7854 46.794L33.0938 46.8122L33.1301 46.1953L32.9305 44.6352L33.4204 41.8777L33.4748 40.9525L33.7832 40.9887L34.0735 41.3153L34.4 41.025L34.7084 41.0613L34.9987 41.3697L35.3252 41.0794L36.2504 41.152L47.0809 40.9525ZM31.6425 54.4316L31.4974 56.5904L31.8058 56.6086L31.9509 54.4679L31.6425 54.4316ZM41.8199 54.8307H42.1283L42.092 55.1391L36.5044 55.7015L36.2142 55.3568L36.2323 55.0665L39.0261 54.9396L39.0079 55.248L41.8199 54.8307Z" fill="white"/>
</g>
<g filter="url(#filter4_d_4165_191)">
<path d="M13.6824 40.771H13.9908V41.6962H14.2992V41.0794H15.5328C15.944 41.0794 16.1496 41.6962 16.1496 42.9299L17.0749 43.2383C17.0749 42.6215 17.2805 42.3131 17.6917 42.3131L18.0001 42.6215V42.9299L16.4581 51.2568L21.0841 50.9484H24.1682L24.4766 49.4064L24.1682 49.098H24.785L24.4766 46.9391V46.6307H25.0934L24.785 46.3223V45.7055H25.4018V45.0887H24.785V44.7803H25.4018L25.0934 44.4719V42.3131L25.4018 42.6215H25.7102V41.3878L25.4018 41.0794V40.771H26.327L24.785 51.2568C25.1962 51.2568 25.813 47.8644 26.6354 41.0794L27.8691 40.771C28.0747 42.4159 28.3831 43.2383 28.7943 43.2383H29.1027C29.1027 42.6215 29.3083 42.3131 29.7195 42.3131H30.0279C28.9999 49.4245 27.4578 57.7515 25.4018 67.2939H25.0934L24.785 66.9855L25.0934 66.6771V64.2098H24.785L23.8598 67.2939H22.9346C22.5234 67.2939 22.3178 66.6771 22.3178 65.4435H22.0094V66.6771H21.7009C21.2897 66.6771 21.0841 66.3687 21.0841 65.7519C21.0841 64.2643 21.7009 60.769 22.9346 55.2661H22.6262L18.6169 55.5745L15.8412 55.2661C15.2244 60.2006 14.6076 63.4902 13.9908 65.1351H13.0656C12.6544 65.1351 12.4488 64.3126 12.4488 62.6678H12.1404L11.832 64.8267L11.2152 64.2098V63.2846L11.5236 62.9762V62.6678L11.2152 62.3594H10.9068L10.5983 62.6678H10.2899L9.98154 61.4342C10.804 54.492 11.7292 49.4548 12.7572 46.3223H13.0656L12.7572 46.0139V45.0887L13.6824 41.6962H13.374L13.6824 40.771ZM13.9908 42.0046V44.1635H14.2992V42.0046H13.9908ZM13.6824 44.4719L13.374 46.9391V47.5559H13.6824L13.9908 45.0887V44.4719H13.6824ZM13.0656 47.8644V49.098H13.374V47.8644H13.0656ZM12.7572 49.4064L12.4488 50.9484V51.2568H12.7572L13.0656 50.0232V49.4064H12.7572ZM12.1404 52.4904V53.7241H12.4488V52.4904H12.1404ZM23.8598 55.5745L23.5514 57.4249V57.7333H23.8598L24.1682 56.1913V55.5745H23.8598ZM23.243 58.0417V59.2754H23.5514V58.0417H23.243ZM25.4018 61.4342L25.0934 62.9762V63.9014H25.4018L25.7102 61.7426V61.4342H25.4018ZM10.2899 62.9762H10.5983V64.5182H10.2899V62.9762Z" fill="white"/>
</g>
<g filter="url(#filter5_d_4165_191)">
<path d="M110.664 4.90286L111.589 5.21127V5.82808H110.664L111.281 6.7533C110.833 7.78131 109.188 8.29532 106.346 8.29532L104.187 8.60373L103.879 9.52894H104.187C103.571 10.9924 102.337 17.5717 100.487 29.2669L101.412 33.2762H101.103C100.644 33.2762 100.233 32.2481 99.8698 30.1921L100.178 27.1081V26.7997H99.8698V27.4165C99.253 27.4165 98.9446 27.6221 98.9446 28.0333V28.3417L99.5614 33.2762V33.5846H98.9446L97.7109 32.6594L97.4025 32.9678H97.0941C96.2717 31.1899 95.8605 29.6479 95.8605 28.3417L96.1689 28.6501H96.4773L95.8605 26.4912L96.7857 26.1828V24.6408H96.1689V24.3324C96.7857 24.3324 97.0941 24.1268 97.0941 23.7156V23.4072H96.4773C96.4773 21.7624 96.7857 20.9399 97.4025 20.9399V16.9307C97.7291 16.6404 98.1403 14.4816 98.6362 10.4542L96.4773 10.7626L92.1596 10.4542V10.1458L93.7017 9.83735V10.1458L94.0101 9.83735H98.6362V8.91213L93.7017 9.52894L93.3933 9.22054H93.0849L91.2344 9.52894L90.3092 8.91213L90.6176 7.37011L90.3092 7.0617C90.3092 6.03368 91.5428 5.51967 94.0101 5.51967L110.664 4.90286ZM108.814 5.82808V6.13648H110.047V5.82808H108.814ZM97.4025 23.0988L96.7857 29.8837H97.4025L97.0941 28.3417V27.7249L97.7109 26.7997H97.4025L97.7109 26.4912V26.1828L97.4025 25.8744V25.566L98.0193 24.3324L97.7109 23.0988H97.4025Z" fill="white"/>
</g>
<g filter="url(#filter6_d_4165_191)">
<path d="M79.9504 5.30197H83.6512C87.9689 6.11229 90.1278 7.96272 90.1278 10.8533V12.7037L87.0437 17.0214H87.3521L90.4362 14.2457V14.8625C89.384 17.2088 88.0475 18.7509 86.4269 19.4886L84.5765 20.1054V21.3391C85.024 21.3391 87.1828 24.0119 91.053 29.3576C91.8754 29.6962 92.6978 30.5187 93.5202 31.8248V32.1332L91.9782 30.8996V31.208C93.0062 32.2965 93.5202 33.1189 93.5202 33.6753H93.2118L91.6698 34.6005H91.3614L90.7446 33.6753L90.4362 33.9837H90.1278C86.0157 30.6215 83.1372 27.229 81.4924 23.8063L79.9504 20.7222C79.2247 20.7222 78.8135 21.9559 78.7168 24.4231C78.8498 26.4791 78.747 27.7309 78.4084 28.1784C77.8036 28.6743 77.7008 29.1701 78.0999 29.666V30.2828H77.1747C76.7635 30.2828 76.5579 29.8716 76.5579 29.0492H76.2495C76.2495 29.8716 75.8625 30.18 75.0885 29.9744L73.7278 28.1603L74.0907 25.3483V24.1147L75.9411 15.4794H76.2495V16.713H76.5579L78.0999 10.2365C77.6887 10.2365 77.4831 10.6477 77.4831 11.4701H77.1747V10.8533H75.3243V10.5449C75.3243 10.1337 75.9411 9.82525 77.1747 9.61965V9.31124H76.5579L74.7075 9.92805H74.3991C74.3991 9.51685 74.8103 9.31124 75.6327 9.31124V9.00284C74.8103 9.00284 74.3991 8.69443 74.3991 8.07762L79.9504 5.30197ZM80.2588 16.4046H80.5672C83.7964 14.8565 86.058 13.2117 87.3521 11.4701V10.8533C87.3521 10.1518 86.1185 9.43219 83.6512 8.69443L81.8008 9.31124L80.2588 16.4046ZM86.4269 8.69443C86.8381 9.6257 87.2493 10.1397 87.6605 10.2365V9.61965L86.4269 8.69443ZM88.2773 10.5449L87.9689 12.0869H88.2773L88.5857 11.7785V10.5449H88.2773ZM76.8663 11.4701H77.1747V12.3953L76.8663 13.6289H76.5579V12.7037L76.8663 11.4701ZM87.3521 12.7037L85.8101 14.8625H86.1185L87.6605 13.0121V12.7037H87.3521ZM90.4362 13.3205H91.053L90.7446 14.2457H90.4362V13.3205ZM76.2495 14.2457H76.5579V15.4794H76.2495V14.2457ZM75.6327 18.255V19.4886H75.9411V18.255H75.6327ZM84.8849 27.5072V27.8156L86.1185 29.0492C85.7194 28.1179 85.3082 27.6039 84.8849 27.5072ZM86.4269 29.666V29.9744L87.6605 30.8996V30.5912L86.4269 29.666Z" fill="white"/>
</g>
<g filter="url(#filter7_d_4165_191)">
<path d="M45.0993 5.46524L46.587 6.49931C46.1516 8.32555 45.3654 9.20239 44.2286 9.12982L36.1737 9.49265L36.1374 10.1095L37.6613 10.2183L39.5299 10.0369L39.8202 10.3816L40.1286 10.3997L42.3056 10.2183L42.9224 10.2727L42.9042 10.5811L35.7383 11.3249L35.1759 15.3161L35.4844 15.3342L43.8657 14.663L44.1378 14.9895L44.1197 15.2979L43.5029 15.2435V15.5519L45.6255 16.0236L45.6073 16.332C45.1598 17.481 42.2088 18.4122 36.7543 19.1258L33.6521 19.2346L33.9423 19.543L32.4547 23.4616H32.1463L32.3277 20.686L32.0193 20.6678L31.4207 24.9492C37.5767 24.1268 41.9246 23.8002 44.4644 23.9696L45.9701 24.3868L45.952 25.0036L45.3352 24.9674L45.6073 25.2939L45.5529 26.2191C44.9603 26.9932 43.7025 27.3197 41.7795 27.1988L41.7613 27.5072L44.2286 27.6704L44.1741 28.2872L29.8242 30.3917L29.5158 30.3735C28.5241 30.1558 28.0282 29.8353 28.0282 29.412V29.3576L28.0826 28.4324L28.9353 25.0943L28.645 24.7678L29.2618 24.7859L29.153 26.328L29.4614 26.3642C29.5823 25.3362 29.8242 24.8404 30.187 24.8766L29.8968 24.532L30.1145 21.466L29.4977 21.4116L29.0804 22.9355L29.4251 22.6452L29.7335 22.6634L29.6065 24.5138L29.2981 24.4775L29.3525 23.5705L29.0441 23.5523L29.0078 24.1691L28.6994 24.151L28.7357 23.5342L29.7154 18.3276L29.407 18.3094L30.1145 16.8218L29.8242 16.4953L29.8423 16.1869L30.5136 10.9803L30.8038 11.3068L31.1123 11.3249L31.1485 10.7081L30.949 9.14796L31.4388 6.39046L31.4932 5.46524L31.8016 5.50152L32.0919 5.82807L32.4184 5.53781L32.7268 5.57409L33.0171 5.88249L33.3437 5.59223L34.2689 5.6648L45.0993 5.46524ZM29.6609 18.9444L29.5158 21.1032L29.8242 21.1214L29.9693 18.9807L29.6609 18.9444ZM39.8383 19.3435H40.1467L40.1104 19.6519L34.5229 20.2143L34.2326 19.8696L34.2507 19.5793L37.0445 19.4523L37.0264 19.7607L39.8383 19.3435Z" fill="white"/>
</g>
<g filter="url(#filter8_d_4165_191)">
<path d="M11.7009 5.28384H12.0093V6.20906H12.3177V5.59225H13.5513C13.9625 5.59225 14.1681 6.20906 14.1681 7.44268L15.0933 7.75109C15.0933 7.13428 15.2989 6.82587 15.7101 6.82587L16.0185 7.13428V7.44268L14.4765 15.7696L19.1026 15.4612H22.1867L22.4951 13.9192L22.1867 13.6108H22.8035L22.4951 11.452V11.1435H23.1119L22.8035 10.8351V10.2183H23.4203V9.60152H22.8035V9.29312H23.4203L23.1119 8.98471V6.82587L23.4203 7.13428H23.7287V5.90065L23.4203 5.59225V5.28384H24.3455L22.8035 15.7696C23.2147 15.7696 23.8315 12.3772 24.6539 5.59225L25.8875 5.28384C26.0931 6.92867 26.4015 7.75109 26.8127 7.75109H27.1211C27.1211 7.13428 27.3267 6.82587 27.738 6.82587H28.0464C27.0183 13.9373 25.4763 22.2643 23.4203 31.8067H23.1119L22.8035 31.4983L23.1119 31.1899V28.7227H22.8035L21.8782 31.8067H20.953C20.5418 31.8067 20.3362 31.1899 20.3362 29.9563H20.0278V31.1899H19.7194C19.3082 31.1899 19.1026 30.8815 19.1026 30.2647C19.1026 28.7771 19.7194 25.2818 20.953 19.7789H20.6446L16.6354 20.0873L13.8597 19.7789C13.2429 24.7134 12.6261 28.003 12.0093 29.6479H11.0841C10.6728 29.6479 10.4672 28.8255 10.4672 27.1806H10.1588L9.85043 29.3395L9.23362 28.7227V27.7974L9.54203 27.489V27.1806L9.23362 26.8722H8.92522L8.61681 27.1806H8.30841L8 25.947C8.82241 19.0049 9.74763 13.9676 10.7756 10.8351H11.0841L10.7756 10.5267V9.60152L11.7009 6.20906H11.3925L11.7009 5.28384ZM12.0093 6.51747V8.6763H12.3177V6.51747H12.0093ZM11.7009 8.98471L11.3925 11.452V12.0688H11.7009L12.0093 9.60152V8.98471H11.7009ZM11.0841 12.3772V13.6108H11.3925V12.3772H11.0841ZM10.7756 13.9192L10.4672 15.4612V15.7696H10.7756L11.0841 14.536V13.9192H10.7756ZM10.1588 17.0033V18.2369H10.4672V17.0033H10.1588ZM21.8782 20.0873L21.5698 21.9377V22.2461H21.8782L22.1867 20.7041V20.0873H21.8782ZM21.2614 22.5546V23.7882H21.5698V22.5546H21.2614ZM23.4203 25.947L23.1119 27.489V28.4143H23.4203L23.7287 26.2554V25.947H23.4203ZM8.30841 27.489H8.61681V29.0311H8.30841V27.489Z" fill="white"/>
</g>
<g filter="url(#filter9_d_4165_191)">
<path d="M65.2149 7.6497C65.4906 7.59319 65.7383 7.09071 65.9515 6.82121C66.1723 6.54223 66.3345 6.3031 66.5831 6.06992C67.0256 5.65432 67.424 5.2117 67.9416 4.87404C68.4371 4.55068 68.9304 4.2235 69.4728 3.99522C69.7485 3.87904 69.8938 4.08938 70.101 4.11115C70.255 4.1273 70.4097 4.02312 70.5634 4.05071C70.9326 4.11684 71.556 4.72984 71.8281 5.10528C72.8121 6.46331 72.9208 9.0828 72.9364 10.7962C72.9421 11.425 72.8824 12.1188 72.807 12.7681C72.7245 13.4777 72.6122 14.3846 72.4596 15.1242C72.115 16.7952 71.7564 18.4773 71.2861 20.0921C70.8585 21.5601 70.3261 22.9499 69.8282 24.3007C69.1452 26.1545 68.1628 27.7728 67.2246 29.4134C66.4946 30.69 65.5107 31.8955 64.5118 32.7796C64.2616 33.001 64.0306 33.1815 63.7681 33.3133C63.5504 33.4225 63.39 33.597 63.1864 33.6798C62.7945 33.8393 62.5469 33.6355 62.1732 33.5039C61.9121 33.4119 61.5813 33.3856 61.338 33.2252C60.1454 32.4397 59.0027 31.5385 58.0372 30.3203C57.1179 29.1603 56.2279 28.0439 55.3787 26.8367C54.4171 25.4696 53.6311 24.1287 52.8073 22.5929C51.9987 21.0856 51.3697 19.6519 50.7045 18.1486C50.422 17.5106 50.2643 16.811 49.9962 16.1683C49.979 16.1267 49.8019 15.7639 49.7872 15.7112C49.7739 15.6096 49.7607 15.5081 49.7474 15.4063C49.7701 15.1547 49.6889 14.9745 49.5044 14.8656C49.454 14.6832 49.4459 14.4186 49.4203 14.2221C49.3916 14.0033 49.363 13.7844 49.3344 13.5655C49.2264 13.5062 49.1572 13.4026 49.1269 13.2542C48.7153 11.6288 48.5986 8.99928 49.8158 8.1106C50.9916 7.2522 52.5281 8.29727 53.6244 9.28959C53.9881 9.61883 54.3723 9.82926 54.7297 10.1918C55.1453 10.6131 55.4887 11.0275 55.8604 11.5008C56.4134 12.2052 57.0847 12.812 57.5279 13.5913C57.9166 14.2747 58.4338 14.8527 58.8693 15.509C59.1205 15.8875 59.2908 16.3397 59.5273 16.723C59.6134 16.863 59.7598 16.9931 59.8393 17.1234C59.9067 17.2336 60.0236 17.6007 60.0856 17.6719C60.7024 18.3829 60.8522 16.8526 61.025 16.2728C61.1467 15.8646 61.3697 15.5578 61.52 15.1614C61.6991 14.6889 61.7874 14.2535 61.979 13.8327C62.9418 11.7173 64.0583 9.67018 65.2149 7.6497C65.2676 7.63902 65.0059 8.0152 65.2149 7.6497ZM63.838 11.7841C63.9984 11.7711 63.9043 11.6123 63.9743 11.5461C64.1004 11.4266 64.2153 11.4566 64.3533 11.2944C64.5725 11.037 64.776 10.6915 64.9867 10.4156C65.4518 9.8069 65.731 8.94925 66.1919 8.33787C66.5884 7.81214 66.9639 7.19526 67.3901 6.77593C67.5653 6.60355 67.7037 6.38127 67.8733 6.20405C67.9271 6.14787 67.9613 6.00152 67.9912 5.95432C68.0701 5.82963 68.1951 6.08213 68.2323 5.79322C67.8653 5.68731 67.1826 6.47833 66.9241 6.79237C66.5916 7.19653 66.2364 7.60249 65.9233 8.00908C65.682 8.32261 65.549 8.77793 65.3169 9.09817C65.1858 9.27912 65.0979 9.24526 64.9235 9.49126C64.8007 9.66441 64.7008 9.8799 64.5921 10.0693C64.4545 10.3096 64.3169 10.5497 64.1793 10.79C64.1242 10.8858 64.0694 10.9819 64.0144 11.078C63.9033 11.1961 63.8899 11.3523 63.9743 11.5461C63.9318 11.6645 63.6252 11.8128 63.7662 11.9936C63.79 11.9238 63.814 11.854 63.838 11.7841C63.9526 11.7747 63.8271 11.8657 63.838 11.7841ZM57.6332 25.8139C57.6278 25.7614 57.4436 25.466 57.4274 25.4359C57.3445 25.28 57.264 25.077 57.1668 24.9271C57.0248 24.7087 56.7865 24.2756 56.608 24.2179C56.7135 25.0255 57.3236 25.441 57.6456 25.9656C57.7719 26.1711 58.4702 27.3453 58.6277 27.1364C58.377 26.9196 58.547 26.8614 58.3495 26.616C58.2428 26.4834 58.1112 26.455 58.0175 26.34C57.8729 26.1632 57.8464 25.9519 57.6332 25.8139C57.6939 25.8534 57.6177 25.6635 57.6332 25.8139ZM67.2623 9.79462C67.3741 9.73495 67.5311 9.85748 67.561 9.62657C67.4108 9.58331 67.043 9.81509 67.1905 10.0038C67.2145 9.93397 67.2383 9.86445 67.2623 9.79462C67.3627 9.74084 67.2516 9.87588 67.2623 9.79462ZM54.9678 11.6833C54.9236 11.5595 54.8959 11.356 54.775 11.5166C55.1002 11.798 54.7751 11.6921 54.9885 11.9881C55.0773 12.1113 55.3113 12.2846 55.4181 12.3962C55.5623 12.5467 55.6656 12.6561 55.7629 12.7884C55.8406 12.8941 55.8971 13.0289 56.0095 13.1672C56.1338 13.3204 56.3458 13.4164 56.4529 13.5589C56.5514 13.6896 56.6416 13.9256 56.7453 14.1218C56.9826 14.5706 57.3225 14.9936 57.6054 15.4057C58.1511 16.2002 58.6885 17.0111 59.1717 17.8697C59.426 18.3215 59.6316 18.7922 59.8396 19.2761C59.9444 19.5201 60.0912 19.7259 60.2158 19.9492C60.2309 20.0648 60.246 20.1805 60.2611 20.2958C60.4218 20.3734 60.5827 20.4506 60.7433 20.5282C60.7771 20.2099 60.3568 19.473 60.2114 19.1465C59.997 18.6649 59.6717 18.3113 59.4376 17.8438C59.0054 16.9802 58.4657 16.0801 57.934 15.3765C57.7155 15.0873 57.4924 14.7608 57.2922 14.4502C57.0705 14.1068 56.7648 13.9186 56.5413 13.6193C56.5255 13.4985 56.5097 13.3774 56.4939 13.2566C56.4128 13.211 56.339 13.1502 56.273 13.0737C56.1258 12.8902 55.8657 12.7888 55.7412 12.6225C55.7297 12.5342 55.7182 12.4462 55.7067 12.3579C55.7112 12.2362 55.6565 12.1667 55.5426 12.1494C55.4186 11.9608 55.1565 11.7116 54.9678 11.6833C55.2548 11.7266 54.9093 11.5201 54.9678 11.6833ZM54.8858 18.7438C54.8416 18.62 54.8139 18.4165 54.693 18.5771C54.7711 18.6506 54.8173 18.6167 54.8318 18.4753C54.9642 19.4889 55.4274 20.1369 55.8597 21.0416C56.1061 21.5573 56.7453 22.9546 57.2268 22.7202C56.3187 21.5965 55.8763 19.7465 54.8858 18.7438C55.0967 18.9573 54.8273 18.5806 54.8858 18.7438ZM52.1858 16.1711C52.132 16.0208 52.215 15.8244 52.0352 15.769C52.0094 15.99 51.9937 16.0692 52.1588 15.9643C52.3246 17.2324 52.9194 18.4246 53.5214 19.5034C53.8975 20.1777 54.2445 20.9547 54.6569 21.5868C54.8308 21.8533 54.9991 22.1204 55.1717 22.3979C55.2951 22.5965 55.605 23.1493 55.766 23.2695C56.1164 23.5315 56.1222 23.1797 56.0047 22.8847C55.9723 22.8032 55.7222 22.5144 55.6775 22.4398C55.609 22.3256 55.5208 22.2432 55.4659 22.1123C55.1658 21.395 54.8246 20.8414 54.4393 20.2005C54.0478 19.5496 53.6395 18.9237 53.2709 18.2303C52.9293 17.5884 52.6669 16.6374 52.1858 16.1711C52.3774 16.357 52.1375 16.0361 52.1858 16.1711ZM71.546 16.9441C71.2638 16.9339 70.9233 18.2928 70.8028 18.5824C70.6639 18.9162 70.4268 19.1829 70.2946 19.5159C70.1366 19.9145 70.0562 20.5074 69.9447 20.9698C69.5925 22.4315 69.1437 23.7629 68.5919 25.0728C68.4952 25.3025 68.3239 25.5519 68.2284 25.7943C68.1821 25.9118 68.1068 26.2715 68.082 26.3216C67.9023 26.6832 67.751 26.5126 67.5541 26.7112C66.9648 27.3066 66.5169 28.5227 66.0683 29.3062C65.7009 29.9478 65.3512 30.6219 64.969 31.2449C64.808 31.5073 64.6158 31.6804 64.4273 31.9072C64.3431 32.0083 64.2873 32.18 64.1765 32.2509C64.0122 32.3567 63.7357 32.2152 63.5757 32.3295C63.2701 32.5473 63.3927 32.8963 62.9294 32.77C62.6582 32.6957 62.4341 32.4427 62.216 32.2357C61.9606 31.993 61.8885 31.8143 61.6509 32.0124C61.6403 32.0214 61.4083 32.7631 61.4174 32.7997C61.4581 32.967 62.4254 33.3068 62.5554 33.3217C62.8667 33.3571 63.1886 33.2015 63.437 33.0962C63.8646 32.9151 64.2318 32.5316 64.5957 32.1564C66.4471 30.2484 67.8253 27.7172 69.0191 25.0196C69.658 23.5758 70.1816 22.0947 70.6797 20.509C70.9035 19.7967 71.0838 19.1433 71.2644 18.376C71.3856 17.8606 71.7807 17.0042 71.5879 16.5174C71.4286 16.6178 71.5599 16.7849 71.546 16.9441C71.5584 16.8024 71.4057 16.9388 71.546 16.9441ZM49.9328 9.18413C49.4125 9.51307 49.4798 10.2935 49.4857 10.9033C49.4433 10.9858 49.4007 11.0683 49.3584 11.1507C49.3934 11.4185 49.4284 11.6863 49.4634 11.9541C49.5117 12.3236 49.532 12.7806 49.6185 13.1414C49.7112 13.5271 49.7921 13.7017 49.8929 14.0697C49.9245 14.3113 49.9561 14.5532 49.9877 14.7948C50.1391 14.8545 50.213 14.9704 50.2095 15.1429C50.3412 15.6894 50.4198 16.1577 50.5789 16.6895C50.7081 16.7574 50.7771 16.8686 50.786 17.0234C50.806 17.1337 50.8259 17.244 50.8459 17.3546C50.8808 17.4393 51.0076 17.6655 51.0519 17.7492C51.2591 18.1408 51.3437 18.6434 51.5338 19.0442C51.9209 19.8604 52.3003 20.686 52.6999 21.4769C54.6139 25.2654 56.8436 28.6816 59.6546 31.5235C59.7082 31.0426 59.0955 30.5371 58.8545 30.1511C58.5761 29.7054 58.2583 29.3242 57.9776 28.8744C57.5002 28.109 57.0147 27.4797 56.4854 26.7968C55.4485 25.4585 54.4556 23.8316 53.6217 22.3027C53.1 21.3465 52.7189 20.3838 52.2776 19.408C52.0683 18.9451 51.9234 18.4029 51.7504 17.9642C51.5386 17.4273 51.4288 16.8136 51.1944 16.2931C51.0744 16.0265 51.0288 15.703 50.9101 15.4348C50.7658 15.1085 50.6723 14.798 50.6205 14.4011C50.5576 13.9205 50.418 13.7149 50.2976 13.2787C50.198 12.9179 50.2386 12.5022 50.1485 12.138C50.0083 12.0727 49.9445 11.952 49.9569 11.7758C49.9319 11.5845 49.9068 11.3929 49.8818 11.2014C49.8627 10.8125 49.9083 10.7132 49.9131 10.3484C49.9184 9.95215 49.9035 9.85873 49.9762 9.51633C49.8333 9.3042 49.8431 9.19029 50.0055 9.17403C50.0854 9.13346 50.0856 9.07083 50.0061 8.98615C49.9815 9.05196 49.9573 9.11803 49.9328 9.18413C49.945 9.11408 49.5891 9.40135 49.9328 9.18413ZM67.6703 10.6774C66.9841 10.9701 66.5151 12.0369 66.1118 12.7349C65.7424 13.3744 65.4502 13.9801 65.1691 14.6677C64.8959 15.3365 64.6844 16.0153 64.4401 16.7174C64.3003 17.1192 64.2113 17.524 64.1109 17.9496C63.9982 18.4268 63.7742 19.2597 63.9057 19.6889C64.2915 19.4217 64.338 18.3143 64.4641 17.8195C64.6418 17.122 64.8197 16.5265 65.0887 15.8826C65.4352 15.053 65.8549 14.2437 66.2915 13.4907C66.573 13.0052 67.89 11.2911 67.6703 10.6774C67.6924 10.7389 67.3763 10.8027 67.6703 10.6774ZM69.5742 5.08599C69.3689 5.11283 68.3419 5.16018 68.4303 5.65792C68.895 5.59719 69.4338 5.41502 69.9042 5.46528C70.3237 5.5102 70.6735 5.82195 71.0155 6.16193C71.3624 6.50684 71.6076 6.80271 71.793 7.31382C71.8315 7.41995 72.004 8.3025 72.1989 8.22671C72.5596 8.08683 71.5284 5.77106 71.3595 5.57433C71.1932 5.38076 70.7134 5.031 70.5072 4.96434C70.4993 4.96186 69.978 4.92234 69.9773 4.92243C69.7464 4.95758 69.8041 4.7128 69.5742 5.08599C69.6246 5.00393 69.3029 5.12146 69.5742 5.08599ZM60.4853 27.0995C59.9684 26.577 59.4475 26.0302 59.0032 25.4172C58.8661 25.228 58.8075 24.8709 58.5786 24.8382C58.1648 24.7794 58.5905 25.649 58.7113 25.8965C58.9764 26.4393 59.5323 27.0512 59.9167 27.4517C60.0425 27.5827 60.5691 28.1967 60.7139 27.7515C60.808 27.4622 60.429 27.3804 60.4853 27.0995C60.4254 27.3987 60.1985 26.8096 60.4853 27.0995ZM71.544 10.6289C71.5056 10.6088 71.4671 10.5883 71.4287 10.5682C71.4236 11.2625 71.3613 12.0177 71.2293 12.687C71.1695 12.99 71.0475 13.2731 70.9803 13.5723C70.9228 13.8279 70.881 14.3983 71.0742 14.641C71.5101 15.1892 71.532 13.7334 71.5812 13.4054C71.6214 13.1381 71.7809 12.8513 71.7998 12.5873C71.8415 12.005 71.6209 11.2174 71.544 10.6289C71.6281 11.2723 71.5056 10.6088 71.544 10.6289ZM65.4976 27.6423C65.3088 27.9721 65.1198 28.3022 64.931 28.632C64.7834 28.89 64.5517 29.0531 64.4632 29.2899C64.2837 29.7706 64.325 30.7741 64.8267 30.172C65.105 29.8379 65.3883 29.2474 65.5678 28.8155C65.7849 28.2934 66.2163 27.594 65.4976 27.6423C65.6409 27.6326 65.2125 28.1406 65.4976 27.6423ZM51.7452 9.61977C51.4541 9.6578 51.0026 9.5887 50.8307 9.89375C50.6654 10.1868 50.7464 10.7675 51.0294 10.8013C51.1094 10.811 51.1282 10.633 51.1962 10.6127C51.3397 10.57 51.4975 10.5338 51.6562 10.5131C51.9901 10.4695 52.4976 10.5239 52.7561 10.2579C52.6143 10.1205 52.4192 9.8751 52.2613 9.77843C52.0542 9.65134 52.0129 9.8735 51.7452 9.61977C51.8155 9.68634 51.4747 9.65512 51.7452 9.61977ZM52.1339 13.2078C52.1348 13.3694 52.1645 13.5235 52.223 13.6706C52.3758 13.4035 52.4754 13.167 52.6945 13.0359C52.8962 12.9154 53.1862 12.9857 53.4048 12.9074C53.3841 12.7524 53.0468 12.5944 52.951 12.5452C52.7517 12.4428 52.6845 12.4168 52.4473 12.353C52.2936 12.3117 52.1581 12.0921 51.993 12.2155C51.7024 12.4331 51.9261 12.986 52.1339 13.2078C52.1829 13.3672 52.0667 13.1361 52.1339 13.2078ZM63.0238 16.2479C62.7301 16.84 62.1034 18.2588 62.3089 19.0005C62.5764 18.5328 62.8203 18.1566 62.931 17.5758C63.0107 17.1562 63.163 16.6641 63.0238 16.2479C63.0761 16.4043 62.8904 16.5169 63.0238 16.2479ZM59.1182 23.0821C59.0241 22.3616 58.5374 21.8281 58.1245 21.3406C57.8675 21.8478 59.0303 23.4847 59.3117 23.8136C59.4565 23.5603 59.2739 23.2501 59.1182 23.0821C59.1853 23.1546 59.0999 22.9417 59.1182 23.0821ZM60.3374 31.0212C60.6401 31.3295 60.9283 31.8418 61.2765 31.6336C60.9096 30.9128 60.4559 30.0919 59.7806 30.5484C60.0071 30.6739 60.2559 30.711 60.3374 31.0212C60.6039 31.2927 60.3433 31.0442 60.3374 31.0212ZM71.4434 9.23466C71.5088 9.25565 71.2826 9.59502 71.5379 9.64501C71.616 9.48825 71.5571 9.30668 71.5291 9.1234C71.4777 8.78757 71.3549 8.76003 71.2774 8.48846C71.2258 8.30798 71.273 8.016 71.1943 7.85282C71.0948 7.64671 70.6688 7.31712 70.5198 7.16518C70.376 7.41624 70.7776 7.94677 70.8823 8.15542C71.0897 8.56857 71.1473 8.91939 71.4434 9.23466C71.5191 9.25899 71.2985 9.08042 71.4434 9.23466ZM69.4938 8.92812C69.1219 8.80003 69.2257 8.99737 69.026 9.34059C68.9519 9.46787 68.6111 9.2936 68.7232 9.71717C68.7883 9.96317 69.241 10.0465 69.3823 9.94813C69.6754 9.74395 69.5383 9.26837 69.4938 8.92812C69.5251 9.16799 69.4242 8.90416 69.4938 8.92812ZM70.654 10.1183C70.5872 9.81258 70.6378 9.1109 70.2339 9.46617C70.2936 9.41391 70.1799 10.3649 70.18 10.3362C70.1801 10.5225 70.207 11.0754 70.3697 11.1536C70.7069 11.3158 70.5244 10.3582 70.654 10.1183C70.6026 9.88282 70.609 10.202 70.654 10.1183ZM60.5298 28.757C60.5894 29.2129 60.7331 29.0909 60.9437 29.4258C61.0579 29.6074 60.9276 30.099 61.2317 29.9399C61.5016 29.7987 61.2498 29.2822 61.1301 29.0691C60.9012 28.6623 60.9295 28.7048 60.5298 28.757C60.7135 28.733 60.551 28.919 60.5298 28.757ZM53.2583 11.7099C53.687 12.1433 54.1157 12.5767 54.5444 13.01C54.6389 12.5033 54.1719 12.2206 53.8457 11.928C53.5638 11.6752 53.5362 11.5478 53.2583 11.7099C53.7129 12.1697 53.3557 11.6533 53.2583 11.7099ZM63.6679 29.687C63.993 29.5579 64.0494 29.4036 63.8863 28.9186C63.8321 28.7572 63.6253 28.3793 63.5241 28.3387C63.1963 28.2072 63.5441 28.7468 63.5362 28.6797C63.5757 29.0159 63.6241 29.3516 63.6679 29.687C63.819 29.6268 63.6131 29.2679 63.6679 29.687ZM56.5765 18.4699C56.49 18.8679 57.0161 19.6621 57.2676 19.899C57.4453 19.5534 56.8285 18.6964 56.5765 18.4699C56.643 18.5296 56.5594 18.5482 56.5765 18.4699ZM59.5786 20.9282C59.4759 21.1994 59.747 21.9988 59.9714 21.9789C60.3919 21.9412 59.6991 21.0234 59.5786 20.9282C59.8485 21.141 59.396 21.4111 59.5786 20.9282ZM62.812 29.5616C62.8504 29.855 62.8548 30.5883 63.227 30.5534C63.2689 30.3947 63.2393 29.9843 63.1787 29.8237C63.0542 29.4934 63.1225 29.521 62.812 29.5616C62.9399 29.5449 62.8521 29.8685 62.812 29.5616ZM70.7269 14.8949C70.4689 15.0085 70.2218 15.9442 70.5226 16.1933C70.5899 15.9414 70.9335 15.1061 70.7269 14.8949C70.9879 15.1616 70.4335 15.0237 70.7269 14.8949ZM62.937 25.6282C62.766 25.8003 62.4829 26.3054 62.7927 26.6148C62.9636 26.4424 63.2467 25.9373 62.937 25.6282C63.069 25.7599 62.8342 25.7317 62.937 25.6282ZM60.0082 28.9498C60.0753 28.7541 59.731 28.2073 59.6252 28.1978C59.5289 28.189 59.4272 28.3772 59.4622 28.5221C59.4916 28.6435 59.9319 28.8899 60.0082 28.9498C60.0005 28.9725 59.8348 28.8139 60.0082 28.9498ZM64.7092 27.2928C64.6463 27.0854 64.6767 26.8331 64.5284 26.6714C64.3118 27.0952 64.2468 27.3532 64.7092 27.2928C64.632 27.039 64.5675 27.3113 64.7092 27.2928ZM69.1485 7.65976C69.23 7.74214 69.6924 8.39256 69.6931 7.99609C69.6928 8.09646 69.5029 7.65353 69.4696 7.63242C69.3103 7.52979 69.3584 7.50976 69.1485 7.65976C69.3143 7.82708 69.2166 7.61079 69.1485 7.65976ZM60.8663 18.7499C60.9132 18.9199 60.9601 19.0899 61.0069 19.2596C61.0945 19.1059 61.181 18.9513 61.266 18.7951C61.1326 18.7803 60.9995 18.7653 60.8663 18.7499C61.055 18.7715 60.9306 18.9834 60.8663 18.7499ZM69.4573 11.1547C69.2953 11.0384 69.1825 10.989 69.1414 11.2577C69.2527 11.3046 69.349 11.337 69.4573 11.1547ZM53.4143 14.3188C53.3401 14.3736 53.1728 14.1298 53.1516 14.4272C53.2616 14.5301 53.3516 14.511 53.4143 14.3188ZM62.3505 21.0899C62.2236 20.9616 62.2366 21.1627 62.3101 21.237C62.3237 21.1878 62.3371 21.1387 62.3505 21.0899C62.3374 21.1375 62.3248 21.0637 62.3505 21.0899ZM62.2501 21.8738C62.3395 21.7173 62.1858 21.7199 62.134 21.8106C62.1726 21.8319 62.2114 21.8528 62.2501 21.8738C62.2685 21.8421 62.2123 21.8533 62.2501 21.8738ZM57.7303 24.1806C57.7048 24.1365 57.679 24.0928 57.6535 24.0487C57.6017 24.1395 57.6409 24.3371 57.7303 24.1806C57.7054 24.1376 57.7122 24.2125 57.7303 24.1806ZM63.6007 31.5647C63.7273 31.693 63.7143 31.4917 63.641 31.4176C63.6274 31.4668 63.614 31.5156 63.6007 31.5647C63.6263 31.5909 63.6137 31.5168 63.6007 31.5647Z" fill="#FF3131"/>
</g>
<defs>
<filter id="filter0_d_4165_191" x="83.4369" y="37.4989" width="29.9782" height="39.1397" filterUnits="userSpaceOnUse" color-interpolation-filters="sRGB">
<feFlood flood-opacity="0" result="BackgroundImageFix"/>
<feColorMatrix in="SourceAlpha" type="matrix" values="0 0 0 0 0 0 0 0 0 0 0 0 0 0 0 0 0 0 127 0" result="hardAlpha"/>
<feOffset dx="-2" dy="3"/>
<feGaussianBlur stdDeviation="3"/>
<feComposite in2="hardAlpha" operator="out"/>
<feColorMatrix type="matrix" values="0 0 0 0 0.984314 0 0 0 0 0.305882 0 0 0 0 0.945098 0 0 0 1 0"/>
<feBlend mode="normal" in2="BackgroundImageFix" result="effect1_dropShadow_4165_191"/>
<feBlend mode="normal" in="SourceGraphic" in2="effect1_dropShadow_4165_191" result="shape"/>
</filter>
<filter id="filter1_d_4165_191" x="62.6649" y="37.8618" width="32.0464" height="37.5977" filterUnits="userSpaceOnUse" color-interpolation-filters="sRGB">
<feFlood flood-opacity="0" result="BackgroundImageFix"/>
<feColorMatrix in="SourceAlpha" type="matrix" values="0 0 0 0 0 0 0 0 0 0 0 0 0 0 0 0 0 0 127 0" result="hardAlpha"/>
<feOffset dx="-2" dy="3"/>
<feGaussianBlur stdDeviation="3"/>
<feComposite in2="hardAlpha" operator="out"/>
<feColorMatrix type="matrix" values="0 0 0 0 0.984314 0 0 0 0 0.305882 0 0 0 0 0.945098 0 0 0 1 0"/>
<feBlend mode="normal" in2="BackgroundImageFix" result="effect1_dropShadow_4165_191"/>
<feBlend mode="normal" in="SourceGraphic" in2="effect1_dropShadow_4165_191" result="shape"/>
</filter>
<filter id="filter2_d_4165_191" x="39.3712" y="36.5374" width="34.2052" height="42.8405" filterUnits="userSpaceOnUse" color-interpolation-filters="sRGB">
<feFlood flood-opacity="0" result="BackgroundImageFix"/>
<feColorMatrix in="SourceAlpha" type="matrix" values="0 0 0 0 0 0 0 0 0 0 0 0 0 0 0 0 0 0 127 0" result="hardAlpha"/>
<feOffset dx="-2" dy="3"/>
<feGaussianBlur stdDeviation="3"/>
<feComposite in2="hardAlpha" operator="out"/>
<feColorMatrix type="matrix" values="0 0 0 0 0.984314 0 0 0 0 0.305882 0 0 0 0 0.945098 0 0 0 1 0"/>
<feBlend mode="normal" in2="BackgroundImageFix" result="effect1_dropShadow_4165_191"/>
<feBlend mode="normal" in="SourceGraphic" in2="effect1_dropShadow_4165_191" result="shape"/>
</filter>
<filter id="filter3_d_4165_191" x="22.0098" y="37.9525" width="30.5587" height="36.9264" filterUnits="userSpaceOnUse" color-interpolation-filters="sRGB">
<feFlood flood-opacity="0" result="BackgroundImageFix"/>
<feColorMatrix in="SourceAlpha" type="matrix" values="0 0 0 0 0 0 0 0 0 0 0 0 0 0 0 0 0 0 127 0" result="hardAlpha"/>
<feOffset dx="-2" dy="3"/>
<feGaussianBlur stdDeviation="3"/>
<feComposite in2="hardAlpha" operator="out"/>
<feColorMatrix type="matrix" values="0 0 0 0 0.984314 0 0 0 0 0.305882 0 0 0 0 0.945098 0 0 0 1 0"/>
<feBlend mode="normal" in2="BackgroundImageFix" result="effect1_dropShadow_4165_191"/>
<feBlend mode="normal" in="SourceGraphic" in2="effect1_dropShadow_4165_191" result="shape"/>
</filter>
<filter id="filter4_d_4165_191" x="1.98154" y="37.771" width="32.0464" height="38.5229" filterUnits="userSpaceOnUse" color-interpolation-filters="sRGB">
<feFlood flood-opacity="0" result="BackgroundImageFix"/>
<feColorMatrix in="SourceAlpha" type="matrix" values="0 0 0 0 0 0 0 0 0 0 0 0 0 0 0 0 0 0 127 0" result="hardAlpha"/>
<feOffset dx="-2" dy="3"/>
<feGaussianBlur stdDeviation="3"/>
<feComposite in2="hardAlpha" operator="out"/>
<feColorMatrix type="matrix" values="0 0 0 0 0.984314 0 0 0 0 0.305882 0 0 0 0 0.945098 0 0 0 1 0"/>
<feBlend mode="normal" in2="BackgroundImageFix" result="effect1_dropShadow_4165_191"/>
<feBlend mode="normal" in="SourceGraphic" in2="effect1_dropShadow_4165_191" result="shape"/>
</filter>
<filter id="filter5_d_4165_191" x="82.3092" y="1.90286" width="33.28" height="40.6817" filterUnits="userSpaceOnUse" color-interpolation-filters="sRGB">
<feFlood flood-opacity="0" result="BackgroundImageFix"/>
<feColorMatrix in="SourceAlpha" type="matrix" values="0 0 0 0 0 0 0 0 0 0 0 0 0 0 0 0 0 0 127 0" result="hardAlpha"/>
<feOffset dx="-2" dy="3"/>
<feGaussianBlur stdDeviation="3"/>
<feComposite in2="hardAlpha" operator="out"/>
<feColorMatrix type="matrix" values="0 0 0 0 0.984314 0 0 0 0 0.305882 0 0 0 0 0.945098 0 0 0 1 0"/>
<feBlend mode="normal" in2="BackgroundImageFix" result="effect1_dropShadow_4165_191"/>
<feBlend mode="normal" in="SourceGraphic" in2="effect1_dropShadow_4165_191" result="shape"/>
</filter>
<filter id="filter6_d_4165_191" x="65.7278" y="2.30197" width="31.7924" height="41.2985" filterUnits="userSpaceOnUse" color-interpolation-filters="sRGB">
<feFlood flood-opacity="0" result="BackgroundImageFix"/>
<feColorMatrix in="SourceAlpha" type="matrix" values="0 0 0 0 0 0 0 0 0 0 0 0 0 0 0 0 0 0 127 0" result="hardAlpha"/>
<feOffset dx="-2" dy="3"/>
<feGaussianBlur stdDeviation="3"/>
<feComposite in2="hardAlpha" operator="out"/>
<feColorMatrix type="matrix" values="0 0 0 0 0.984314 0 0 0 0 0.305882 0 0 0 0 0.945098 0 0 0 1 0"/>
<feBlend mode="normal" in2="BackgroundImageFix" result="effect1_dropShadow_4165_191"/>
<feBlend mode="normal" in="SourceGraphic" in2="effect1_dropShadow_4165_191" result="shape"/>
</filter>
<filter id="filter7_d_4165_191" x="20.0282" y="2.46524" width="30.5587" height="36.9264" filterUnits="userSpaceOnUse" color-interpolation-filters="sRGB">
<feFlood flood-opacity="0" result="BackgroundImageFix"/>
<feColorMatrix in="SourceAlpha" type="matrix" values="0 0 0 0 0 0 0 0 0 0 0 0 0 0 0 0 0 0 127 0" result="hardAlpha"/>
<feOffset dx="-2" dy="3"/>
<feGaussianBlur stdDeviation="3"/>
<feComposite in2="hardAlpha" operator="out"/>
<feColorMatrix type="matrix" values="0 0 0 0 0.984314 0 0 0 0 0.305882 0 0 0 0 0.945098 0 0 0 1 0"/>
<feBlend mode="normal" in2="BackgroundImageFix" result="effect1_dropShadow_4165_191"/>
<feBlend mode="normal" in="SourceGraphic" in2="effect1_dropShadow_4165_191" result="shape"/>
</filter>
<filter id="filter8_d_4165_191" x="0" y="2.28384" width="32.0464" height="38.5229" filterUnits="userSpaceOnUse" color-interpolation-filters="sRGB">
<feFlood flood-opacity="0" result="BackgroundImageFix"/>
<feColorMatrix in="SourceAlpha" type="matrix" values="0 0 0 0 0 0 0 0 0 0 0 0 0 0 0 0 0 0 127 0" result="hardAlpha"/>
<feOffset dx="-2" dy="3"/>
<feGaussianBlur stdDeviation="3"/>
<feComposite in2="hardAlpha" operator="out"/>
<feColorMatrix type="matrix" values="0 0 0 0 0.984314 0 0 0 0 0.305882 0 0 0 0 0.945098 0 0 0 1 0"/>
<feBlend mode="normal" in2="BackgroundImageFix" result="effect1_dropShadow_4165_191"/>
<feBlend mode="normal" in="SourceGraphic" in2="effect1_dropShadow_4165_191" result="shape"/>
</filter>
<filter id="filter9_d_4165_191" x="40.8409" y="0.960449" width="36.0959" height="41.7777" filterUnits="userSpaceOnUse" color-interpolation-filters="sRGB">
<feFlood flood-opacity="0" result="BackgroundImageFix"/>
<feColorMatrix in="SourceAlpha" type="matrix" values="0 0 0 0 0 0 0 0 0 0 0 0 0 0 0 0 0 0 127 0" result="hardAlpha"/>
<feOffset dx="-2" dy="3"/>
<feGaussianBlur stdDeviation="3"/>
<feComposite in2="hardAlpha" operator="out"/>
<feColorMatrix type="matrix" values="0 0 0 0 0.984314 0 0 0 0 0.305882 0 0 0 0 0.945098 0 0 0 1 0"/>
<feBlend mode="normal" in2="BackgroundImageFix" result="effect1_dropShadow_4165_191"/>
<feBlend mode="normal" in="SourceGraphic" in2="effect1_dropShadow_4165_191" result="shape"/>
</filter>
</defs>
</svg>
