<svg xmlns="http://www.w3.org/2000/svg" fill-rule="evenodd" stroke-linejoin="round" stroke-miterlimit="2" clip-rule="evenodd" viewBox="0 0 64 64" id="Upload"><g fill="#ff01de" class="color000000 svgShape"><rect width="64" height="64" fill="none"></rect><path d="M332.323,257.427C333.685,252.115 339.237,248 346,248C350.579,248 354.622,249.889 357.158,252.746C358.318,252.27 359.622,252 361,252C364.599,252 367.654,253.844 369.094,256.404C374.22,257.771 378,262.447 378,268C378,274.623 372.623,280 366,280L362,280C360.896,280 360,279.104 360,278C360,276.896 360.896,276 362,276C362,276 366,276 366,276C370.415,276 374,272.415 374,268C374,264.049 371.131,260.763 367.363,260.116C366.655,259.994 366.067,259.502 365.822,258.827C365.204,257.126 363.241,256 361,256C359.757,256 358.611,256.352 357.714,256.959C357.268,257.261 356.718,257.369 356.19,257.261C355.662,257.152 355.2,256.834 354.91,256.38C353.217,253.737 349.843,252 346,252C340.947,252 336.654,255.002 336.066,259.082C335.966,259.773 335.513,260.362 334.87,260.636C332.009,261.856 330,264.695 330,268C330,272.415 333.585,276 338,276L342,276C343.104,276 344,276.896 344,278C344,279.104 343.104,280 342,280L338,280C331.377,280 326,274.623 326,268C326,263.43 328.56,259.453 332.323,257.427Z" transform="translate(-320 -232)" fill="#ff01de" class="color000000 svgShape"></path><path d="M28,270L8,270C6.16,270 4.667,270.896 4.667,272C4.667,273.104 6.16,274 8,274L28,274C29.84,274 31.333,273.104 31.333,272C31.333,270.896 29.84,270 28,270Z" transform="matrix(0 -.6 1 0 -240 60.8)" fill="#ff01de" class="color000000 svgShape"></path><path d="M8.828,272L12.414,268.414C13.195,267.634 13.195,266.366 12.414,265.586C11.634,264.805 10.366,264.805 9.586,265.586L4.586,270.586C3.805,271.367 3.805,272.633 4.586,273.414L9.586,278.414C10.366,279.195 11.634,279.195 12.414,278.414C13.195,277.634 13.195,276.366 12.414,275.586L8.828,272Z" transform="matrix(0 1 1 0 -240 38)" fill="#ff01de" class="color000000 svgShape"></path></g></svg>